<?xml version="1.0" encoding="iso-8859-1"?>
<!-- Generator: Adobe Illustrator 19.0.0, SVG Export Plug-In . SVG Version: 6.00 Build 0)  -->
<svg version="1.1" id="Capa_1" xmlns="http://www.w3.org/2000/svg" xmlns:xlink="http://www.w3.org/1999/xlink" x="0px" y="0px"
	 viewBox="0 0 512 512" style="enable-background:new 0 0 512 512;" xml:space="preserve">
<path style="fill:#AEA8AF;" d="M500.706,252.233l-63.029-21.01l-29.079-79.967c-2.373-6.527-8.577-10.872-15.522-10.872H297.29
	v206.452h173.42l25.717-10.287c9.406-3.762,15.573-12.871,15.573-23.002v-45.645C512,260.793,507.451,254.48,500.706,252.233z"/>
<polygon style="fill:#6F6571;" points="297.29,173.417 297.29,231.224 437.677,231.224 416.657,173.417 "/>
<path style="fill:#5D5360;" d="M422.663,189.932l-6.006-16.516H297.29v16.516h77.77c3.473,0,6.574,2.173,7.761,5.436l13.036,35.854
	h17.569l-15.013-41.29H422.663z"/>
<path style="fill:#9C969E;" d="M297.29,289.03v57.806h173.42l25.717-10.287c9.406-3.762,15.573-12.872,15.573-23.002V289.03H297.29z
	"/>
<rect x="297.29" y="322.057" style="fill:#867E88;" width="140.39" height="24.774"/>
<path style="fill:#EDEBED;" d="M305.548,346.836H8.258c-4.561,0-8.258-3.697-8.258-8.258V115.611c0-4.561,3.697-8.258,8.258-8.258
	h297.29c4.561,0,8.258,3.697,8.258,8.258v222.968C313.806,343.138,310.109,346.836,305.548,346.836z"/>
<path style="fill:#DBD9DC;" d="M305.548,346.836H8.258c-4.561,0-8.258-3.697-8.258-8.258V289.03h313.806v49.548
	C313.806,343.138,310.109,346.836,305.548,346.836z"/>
<path style="fill:#FFD164;" d="M252.863,189.232l-57.806-33.032c-4.935-2.847-11.258-1.113-14.081,3.839
	c-2.831,4.952-1.113,11.258,3.839,14.081l24.059,13.75H66.065c-5.702,0-10.323,4.621-10.323,10.323s4.621,10.323,10.323,10.323
	h142.809l-24.059,13.75c-4.952,2.823-6.669,9.129-3.839,14.081c1.903,3.339,5.387,5.202,8.968,5.202c1.734,0,3.5-0.435,5.113-1.363
	l57.806-33.032c3.218-1.839,5.202-5.258,5.202-8.96C258.065,194.491,256.081,191.07,252.863,189.232z"/>
<circle style="fill:#5D5360;" cx="107.36" cy="363.357" r="41.29"/>
<circle style="fill:#C9C6CA;" cx="107.36" cy="363.357" r="24.774"/>
<circle style="fill:#AEA8AF;" cx="107.36" cy="363.357" r="8.258"/>
<circle style="fill:#5D5360;" cx="437.68" cy="363.357" r="41.29"/>
<circle style="fill:#C9C6CA;" cx="437.68" cy="363.357" r="24.774"/>
<circle style="fill:#AEA8AF;" cx="437.68" cy="363.357" r="8.258"/>
<path style="fill:#FFE17D;" d="M512,297.288h-16.516c-4.561,0-8.258-3.697-8.258-8.258v-8.258c0-4.561,3.697-8.258,8.258-8.258H512
	V297.288z"/>
<g>
</g>
<g>
</g>
<g>
</g>
<g>
</g>
<g>
</g>
<g>
</g>
<g>
</g>
<g>
</g>
<g>
</g>
<g>
</g>
<g>
</g>
<g>
</g>
<g>
</g>
<g>
</g>
<g>
</g>
</svg>
