<?xml version="1.0" encoding="iso-8859-1"?>
<!-- Generator: Adobe Illustrator 19.0.0, SVG Export Plug-In . SVG Version: 6.00 Build 0)  -->
<svg version="1.1" id="Capa_1" xmlns="http://www.w3.org/2000/svg" xmlns:xlink="http://www.w3.org/1999/xlink" x="0px" y="0px"
	 viewBox="0 0 512 512" style="enable-background:new 0 0 512 512;" xml:space="preserve">
<path style="fill:#E6646E;" d="M411.025,113.141c-0.342-8.722-7.512-15.617-16.242-15.617H117.216
	c-8.729,0-15.899,6.895-16.242,15.617L85.996,495.109C85.634,504.328,93.01,512,102.237,512h307.526
	c9.227,0,16.603-7.672,16.242-16.891L411.025,113.141z"/>
<path style="fill:#FFE17D;" d="M256,0c-44.81,0-81.27,36.456-81.27,81.27v56.889h16.254V81.27c0-35.849,29.167-65.016,65.016-65.016
	s65.016,29.167,65.016,65.016v56.889h16.254V81.27C337.27,36.456,300.81,0,256,0z"/>
<g>
	<circle style="fill:#FFC350;" cx="182.86" cy="146.29" r="16.254"/>
	<circle style="fill:#FFC350;" cx="329.14" cy="146.29" r="16.254"/>
</g>
<path style="fill:#FFE17D;" d="M256,370.866l-41.474,26.037c-9.14,5.738-20.61-2.595-17.977-13.061l11.947-47.49l-37.579-31.398
	c-8.282-6.92-3.901-20.403,6.867-21.134l48.857-3.313l18.248-45.442c4.022-10.015,18.199-10.015,22.221,0l18.248,45.442
	l48.857,3.313c10.768,0.73,15.149,14.214,6.867,21.134l-37.579,31.398l11.947,47.49c2.633,10.466-8.837,18.8-17.977,13.061
	L256,370.866z"/>
<path style="fill:#DC4655;" d="M262.499,487.619c-83.04,0-149.428-69.042-146.174-152.018l9.336-238.077h-8.445
	c-8.729,0-15.899,6.895-16.242,15.617L85.996,495.109C85.634,504.328,93.01,512,102.237,512h307.526
	c9.227,0,16.603-7.672,16.242-16.891l-0.294-7.49L262.499,487.619L262.499,487.619z"/>
<g>
</g>
<g>
</g>
<g>
</g>
<g>
</g>
<g>
</g>
<g>
</g>
<g>
</g>
<g>
</g>
<g>
</g>
<g>
</g>
<g>
</g>
<g>
</g>
<g>
</g>
<g>
</g>
<g>
</g>
</svg>
