<?xml version="1.0" encoding="iso-8859-1"?>
<!-- Generator: Adobe Illustrator 19.0.0, SVG Export Plug-In . SVG Version: 6.00 Build 0)  -->
<svg version="1.1" id="Capa_1" xmlns="http://www.w3.org/2000/svg" xmlns:xlink="http://www.w3.org/1999/xlink" x="0px" y="0px"
	 viewBox="0 0 511.999 511.999" style="enable-background:new 0 0 511.999 511.999;" xml:space="preserve">
<polygon style="fill:#FFC350;" points="256,46.716 55.088,138.801 256,230.886 456.912,138.801 "/>
<polygon style="fill:#FFD164;" points="456.912,138.801 456.912,373.199 256,465.284 256,230.886 "/>
<path style="fill:#FFE17D;" d="M456.912,138.801L256,230.886l54.777,93.903c2.169,3.719,6.805,5.186,10.719,3.392l185.618-85.075
	c4.498-2.062,6.236-7.554,3.743-11.828L456.912,138.801z"/>
<polygon style="fill:#FFC350;" points="55.088,138.801 55.088,373.199 256,465.284 256,230.886 "/>
<path style="fill:#FFD164;" d="M55.088,138.801L256,230.886l-54.777,93.903c-2.169,3.719-6.805,5.186-10.719,3.392L4.886,243.106
	c-4.498-2.062-6.236-7.554-3.743-11.828L55.088,138.801z"/>
<polygon style="fill:#FFE17D;" points="55.088,138.801 256,230.886 256,46.716 "/>
<g>
</g>
<g>
</g>
<g>
</g>
<g>
</g>
<g>
</g>
<g>
</g>
<g>
</g>
<g>
</g>
<g>
</g>
<g>
</g>
<g>
</g>
<g>
</g>
<g>
</g>
<g>
</g>
<g>
</g>
</svg>
