<?xml version="1.0" encoding="iso-8859-1"?>
<!-- Generator: Adobe Illustrator 19.0.0, SVG Export Plug-In . SVG Version: 6.00 Build 0)  -->
<svg version="1.1" id="Capa_1" xmlns="http://www.w3.org/2000/svg" xmlns:xlink="http://www.w3.org/1999/xlink" x="0px" y="0px"
	 viewBox="0 0 512 512" style="enable-background:new 0 0 512 512;" xml:space="preserve">
<path style="fill:#EDEBED;" d="M487.226,37.162H289.032c-13.682,0-24.774,11.092-24.774,24.774v173.419
	c0,13.682,11.092,24.774,24.774,24.774h41.29v47.838c0,3.679,4.448,5.521,7.049,2.92l50.758-50.758h99.097
	c13.682,0,24.774-11.092,24.774-24.774V61.936C512,48.254,500.908,37.162,487.226,37.162z"/>
<path style="fill:#E6646E;" d="M375.85,393.194l-98.96-56.977c-9.602-5.528-21.719-3.926-29.553,3.909l-25.607,25.607
	c-7.834,7.834-20.284,8.457-28.904,1.498c-15.063-12.16-30.114-25.665-44.833-40.383s-28.224-29.77-40.383-44.833
	c-6.959-8.62-6.336-21.07,1.498-28.904l25.607-25.607c7.834-7.834,9.437-19.951,3.909-29.553L81.645,98.99
	c-8.045-13.973-27.161-16.501-38.562-5.1l-29.371,29.371c-38.277,38.277,6.328,144.94,99.627,238.239
	s199.963,137.904,238.239,99.627l29.371-29.371C392.351,420.354,389.823,401.24,375.85,393.194z"/>
<g>
	<path style="fill:#E6646E;" d="M388.129,194.066c-5.702,0-10.323-2.556-10.323-8.258c0-12.065,8.073-22.496,20.081-25.956
		c17.831-5.141,28.387-22.94,24.54-41.395c-2.75-13.177-13.452-23.879-26.629-26.625c-10.847-2.262-21.427,0.242-29.79,7.044
		c-8.25,6.706-12.976,16.637-12.976,27.25c0,5.702-4.621,10.323-10.323,10.323s-10.323-4.621-10.323-10.323
		c0-16.855,7.508-32.625,20.597-43.266c13.089-10.637,30.21-14.754,47.024-11.238c21.097,4.395,38.226,21.524,42.629,42.621
		c6.073,29.145-10.71,57.278-39.032,65.448c-2.565,0.738-5.153,2.915-5.153,6.117C398.452,191.508,393.831,194.066,388.129,194.066z
		"/>
	<path style="fill:#E6646E;" d="M388.21,225.739c-5.702,0-10.363-4.621-10.363-10.323s4.581-10.323,10.282-10.323h0.081
		c5.702,0,10.323,4.621,10.323,10.323S393.911,225.739,388.21,225.739z"/>
</g>
<g>
	<polygon style="fill:#DC4655;" points="29.88,107.094 112.18,250.038 124.27,237.948 41.97,95.003 	"/>
	<polygon style="fill:#DC4655;" points="223.402,364.059 366.806,445.899 378.917,433.788 235.513,351.948 	"/>
	<path style="fill:#DC4655;" d="M133.984,340.854C40.685,247.555-3.919,140.893,34.357,102.616l-20.645,20.645
		c-38.277,38.277,6.328,144.94,99.627,238.239s199.963,137.904,238.239,99.627l20.645-20.645
		C333.947,478.758,227.284,434.154,133.984,340.854z"/>
</g>
<path style="fill:#DBD9DC;" d="M289.032,136.258V37.162c-13.682,0-24.774,11.092-24.774,24.774v173.419
	c0,13.682,11.092,24.774,24.774,24.774h41.29v47.838c0,3.678,4.448,5.521,7.049,2.919l50.758-50.758h99.097
	c13.682,0,24.774-11.092,24.774-24.774H388.129C333.399,235.355,289.032,190.988,289.032,136.258z"/>
<g>
</g>
<g>
</g>
<g>
</g>
<g>
</g>
<g>
</g>
<g>
</g>
<g>
</g>
<g>
</g>
<g>
</g>
<g>
</g>
<g>
</g>
<g>
</g>
<g>
</g>
<g>
</g>
<g>
</g>
</svg>
