<?xml version="1.0" encoding="iso-8859-1"?>
<!-- Generator: Adobe Illustrator 19.0.0, SVG Export Plug-In . SVG Version: 6.00 Build 0)  -->
<svg version="1.1" id="Capa_1" xmlns="http://www.w3.org/2000/svg" xmlns:xlink="http://www.w3.org/1999/xlink" x="0px" y="0px"
	 viewBox="0 0 511.999 511.999" style="enable-background:new 0 0 511.999 511.999;" xml:space="preserve">
<path style="fill:#DBD9DC;" d="M498.661,64.132L260.077,0.559c-2.799-0.746-5.744-0.745-8.542,0.002L13.331,64.131
	c-3.579,0.955-6.1,4.126-6.151,7.83c-0.597,43.33,6.149,301.821,244.604,438.919c2.531,1.455,5.732,1.494,8.297,0.1
	C498.959,381.082,505.43,115.897,504.816,71.957C504.764,68.251,502.243,65.086,498.661,64.132z"/>
<path style="fill:#C9C6CA;" d="M451.765,85.944l-183.75-50.043c-7.214-1.965-12.22-8.516-12.22-15.994V0.001
	c-1.433,0.001-2.865,0.187-4.26,0.559L13.331,64.131c-3.579,0.955-6.1,4.129-6.151,7.833
	c-0.597,43.338,6.154,301.821,244.604,438.917c1.228,0.706,2.616,1.064,4.01,1.101v-23.161c0-9.335,5.428-17.381,13.329-22.352
	c0.04-0.025,0.08-0.051,0.12-0.076c163.662-104.277,195.018-282.548,200.902-354.354C471.13,100.017,463.4,89.044,451.765,85.944z"
	/>
<path style="fill:#FFD164;" d="M447.499,101.962L260.081,52.024c-2.796-0.745-5.738-0.745-8.534,0L64.112,101.962
	c-3.893,1.037-6.455,4.707-6.126,8.722c6.36,77.615,39.128,243.519,193.268,341.729c2.739,1.745,6.344,1.745,9.083,0
	c154.141-98.211,186.929-264.114,193.289-341.729C453.954,106.669,451.391,102.999,447.499,101.962z"/>
<path style="fill:#FFE17D;" d="M255.814,76.618l171.692,45.749c-7.989,70.873-40.535,214.433-171.712,303.282
	C124.637,336.811,92.093,193.244,84.103,122.367L255.814,76.618"/>
<path style="fill:#FFFFFF;" d="M239.423,322.656c-4.241,0-8.486-1.619-11.72-4.856l-71.161-71.161
	c-6.475-6.471-6.475-16.969,0-23.44c6.467-6.475,16.973-6.475,23.44,0l59.441,59.437l104.313-104.309
	c6.467-6.475,16.973-6.475,23.44,0c6.475,6.471,6.475,16.969,0,23.44L251.143,317.8
	C247.909,321.037,243.664,322.656,239.423,322.656z"/>
<g>
</g>
<g>
</g>
<g>
</g>
<g>
</g>
<g>
</g>
<g>
</g>
<g>
</g>
<g>
</g>
<g>
</g>
<g>
</g>
<g>
</g>
<g>
</g>
<g>
</g>
<g>
</g>
<g>
</g>
</svg>
