<svg height="512" viewBox="0 0 58 58" width="512" xmlns="http://www.w3.org/2000/svg"><g id="001---Organic-Store" fill="none" transform="translate(-1)"><path id="Shape" d="m56 14v42c0 1.1045695-.8954305 2-2 2h-48c-1.1045695 0-2-.8954305-2-2v-42z" fill="#cbb292"/><path id="Shape" d="m54 14v42c.0394434 1.0624167-.787735 1.9566636-1.85 2h-44.3c-1.062265-.0433364-1.88944341-.9375833-1.85-2v-42z" fill="#f5efca"/><path id="Shape" d="m40.59 47.1c3 2 7.49.6 10-3 1.95-2.86 1.46-9.3 1.16-11.92-.0327239-.292714-.1928265-.556115-.4375996-.7199395s-.5493196-.2114091-.8324004-.1300605c-2.61.67-8.92 2.76-10.87 5.67-2.49 3.61-2.04 8.14.98 10.1z" fill="#24ae5f"/><path id="Shape" d="m59 3v3h-58v-3c0-1.65685425 1.34314575-3 3-3h52c1.6568542 0 3 1.34314575 3 3z" fill="#f0c419"/><path id="Shape" d="m57 3v3h-54v-3c-.05625873-1.59821922 1.19190449-2.94033022 2.79-3h48.42c1.5980955.05966978 2.8462587 1.40178078 2.79 3z" fill="#f3d55b"/><path id="Shape" d="m10 24h13c.5522847 0 1 .4477153 1 1v33h-15v-33c0-.5522847.44771525-1 1-1z" fill="#cbb292"/><path id="Shape" d="m12 26h9c.5522847 0 1 .4477153 1 1v31h-11v-31c0-.5522847.4477153-1 1-1z" fill="#24ae5f"/><rect id="Rectangle-path" fill="#d1d4d1" height="4" rx="2" width="4" x="17" y="40"/><path id="Shape" d="m40.17 47c-.2336522.0004565-.4600879-.0809188-.64-.23-.2045071-.1695482-.3331478-.4135008-.3575369-.6780285s.057478-.5278889.2275369-.7319715l4.83-5.79c.3534622-.4252593.9847407-.4834622 1.41-.13s.4834622.9847407.13 1.41l-4.83 5.79c-.1903565.2285401-.4725678.360483-.77.36z" fill="#4c8056"/><path id="Shape" d="m1 6v6.79c-.0568596 2.6296921 1.88073152 4.8779883 4.49 5.21 1.75047691.173059 3.46312739-.5864313 4.51-2 1.0525706 1.4233625 2.7793202 2.1840452 4.54 2h.06c1.359529-.1725475 2.588645-.8955569 3.4-2 .9442719 1.2590292 2.4262135 2 4 2s3.0557281-.7409708 4-2c.044227.0615101.0944755.1184583.15.17.9498995 1.1463516 2.3612317 1.8097806 3.85 1.8097806s2.9001005-.663429 3.85-1.8097806c.0555245-.0515417.105773-.1084899.15-.17.9442719 1.2590292 2.4262135 2 4 2s3.0557281-.7409708 4-2c.811355 1.1044431 2.040471 1.8274525 3.4 2h.06c1.7606798.1840452 3.4874294-.5766375 4.54-2 1.0468726 1.4135687 2.7595231 2.173059 4.51 2 2.6092685-.3320117 4.5468596-2.5803079 4.49-5.21v-6.79z" fill="#a56a43"/><path id="Shape" d="m6.85 17.92c-.45097653.0653733-.90902347.0653733-1.36 0-2.57852067-.3286677-4.50580503-2.5306652-4.49-5.13v-6.79h2v6.79c-.08712562 2.4039827 1.51741426 4.54198 3.85 5.13z" fill="#805333"/><path id="Shape" d="m59 6v6.79c.0568596 2.6296921-1.8807315 4.8779883-4.49 5.21-.4509765.0653733-.9090235.0653733-1.36 0 2.3631572-.5939571 3.9760551-2.7766058 3.85-5.21v-6.79z" fill="#805333"/><path id="Shape" d="m41.56 46.1c-.3328575.3872915-.7202403.7241461-1.15 1-.1355857.0874889-.2757891.1676051-.42.24-3 1.59-7.18.2-9.55-3.27-2-2.87-1.46-9.3-1.16-11.92.0327239-.292714.1928265-.556115.4375996-.7199395s.5493196-.2114091.8324004-.1300605c2.57.74 8.88 2.8 10.84 5.66 2.13 3.12 2.11 6.89.17 9.14z" fill="#4fba6f"/><path id="Shape" d="m41.56 46.1c-.3328575.3872915-.7202403.7241461-1.15 1-.1355857.0874889-.2757891.1676051-.42.24l-4.76-5.7c-.22865-.2750945-.2931702-.6512756-.1692563-.9868396.1239138-.335564.4174362-.5795306.77-.64.3525639-.0604695.7106063.0717451.9392563.3468396z" fill="#4c8056"/></g></svg>